<svg xmlns="http://www.w3.org/2000/svg" xmlns:xlink="http://www.w3.org/1999/xlink" version="1.1" x="0px" y="0px" width="44px" height="32px" viewBox="0 0 44 32" xml:space="preserve">
	<path d="M3 24H2V2h34v1c0 0.553 0.448 1 1 1 0.553 0 1-0.447 1-1V2c0-1.104-0.896-2-2-2H2C0.896 0 0 0.896 0 2v22c0 1.104 0.896 2 2 2h1c0.553 0 1-0.447 1-1C4 24.448 3.553 24 3 24zM42 6H8C6.896 6 6 6.896 6 8v22c0 1.104 0.896 2 2 2h34c1.104 0 2-0.896 2-2V8C44 6.896 43.104 6 42 6zM42 30H8V8h34V30z" transform="translate(0,32) scale(1,-1)"/>
</svg>